<mxfile host="app.diagrams.net" modified="2020-11-24T14:42:36.585Z" agent="5.0 (Windows NT 10.0; Win64; x64) AppleWebKit/537.36 (KHTML, like Gecko) Chrome/87.0.4280.66 Safari/537.36" etag="lcMOSZbX73-J9giMiOKE" version="13.10.2" type="github">
  <diagram id="C5RBs43oDa-KdzZeNtuy" name="Page-1">
    <mxGraphModel dx="1038" dy="548" grid="1" gridSize="10" guides="1" tooltips="1" connect="1" arrows="1" fold="1" page="1" pageScale="1" pageWidth="827" pageHeight="1169" math="0" shadow="0">
      <root>
        <mxCell id="WIyWlLk6GJQsqaUBKTNV-0" />
        <mxCell id="WIyWlLk6GJQsqaUBKTNV-1" parent="WIyWlLk6GJQsqaUBKTNV-0" />
        <mxCell id="ys5pUItbPiu9k7PSofI9-2" value="" style="edgeStyle=orthogonalEdgeStyle;rounded=0;orthogonalLoop=1;jettySize=auto;html=1;" edge="1" parent="WIyWlLk6GJQsqaUBKTNV-1" source="ys5pUItbPiu9k7PSofI9-0" target="ys5pUItbPiu9k7PSofI9-1">
          <mxGeometry relative="1" as="geometry" />
        </mxCell>
        <mxCell id="ys5pUItbPiu9k7PSofI9-0" value="satin alacaginiz bir esya secin&amp;nbsp;" style="strokeWidth=2;html=1;shape=mxgraph.flowchart.start_1;whiteSpace=wrap;" vertex="1" parent="WIyWlLk6GJQsqaUBKTNV-1">
          <mxGeometry x="120" y="40" width="160" height="60" as="geometry" />
        </mxCell>
        <mxCell id="ys5pUItbPiu9k7PSofI9-6" value="" style="edgeStyle=orthogonalEdgeStyle;rounded=0;orthogonalLoop=1;jettySize=auto;html=1;" edge="1" parent="WIyWlLk6GJQsqaUBKTNV-1" source="ys5pUItbPiu9k7PSofI9-1" target="ys5pUItbPiu9k7PSofI9-5">
          <mxGeometry relative="1" as="geometry" />
        </mxCell>
        <mxCell id="ys5pUItbPiu9k7PSofI9-1" value="sectiginiz esyanin fiyatini girin" style="shape=parallelogram;perimeter=parallelogramPerimeter;whiteSpace=wrap;html=1;fixedSize=1;strokeWidth=2;" vertex="1" parent="WIyWlLk6GJQsqaUBKTNV-1">
          <mxGeometry x="110" y="180" width="180" height="60" as="geometry" />
        </mxCell>
        <mxCell id="ys5pUItbPiu9k7PSofI9-9" value="" style="edgeStyle=orthogonalEdgeStyle;rounded=0;orthogonalLoop=1;jettySize=auto;html=1;" edge="1" parent="WIyWlLk6GJQsqaUBKTNV-1" source="ys5pUItbPiu9k7PSofI9-5" target="ys5pUItbPiu9k7PSofI9-8">
          <mxGeometry relative="1" as="geometry" />
        </mxCell>
        <mxCell id="ys5pUItbPiu9k7PSofI9-5" value="indirimli fiyat=(80 x fiyat)/100" style="whiteSpace=wrap;html=1;strokeWidth=2;" vertex="1" parent="WIyWlLk6GJQsqaUBKTNV-1">
          <mxGeometry x="110" y="320" width="180" height="60" as="geometry" />
        </mxCell>
        <mxCell id="ys5pUItbPiu9k7PSofI9-8" value="indirimli fiyat&lt;br&gt;" style="ellipse;whiteSpace=wrap;html=1;strokeWidth=2;" vertex="1" parent="WIyWlLk6GJQsqaUBKTNV-1">
          <mxGeometry x="140" y="450" width="120" height="80" as="geometry" />
        </mxCell>
      </root>
    </mxGraphModel>
  </diagram>
</mxfile>
